Coordinates
version=1
nRows=6
nColumns=107
inDegrees=yes

Units are S.I. units (second, meters, Newtons, ...)
If the header above contains a line with 'inDegrees', this indicates whether rotational values are in degrees (yes) or radians (no).

endheader
time	sternoclavicular_r2	sternoclavicular_r3	unrotscap_r3	unrotscap_r2	acromioclavicular_r2	acromioclavicular_r3	acromioclavicular_r1	unrothum_r1	unrothum_r3	unrothum_r2	elv_angle	shoulder_elv	shoulder1_r2	shoulder_rot	elbow_flexion	pro_sup	deviation	flexion	proximal_distal_r1	proximal_distal_r3	cmc_flexion	cmc_abduction	mp_flexion	ip_flexion	mcp2_flexion	mcp2_abduction	pm2_flexion	md2_flexion	mcp3_flexion	mcp3_abduction	pm3_flexion	md3_flexion	mcp4_flexion	mcp4_abduction	pm4_flexion	md4_flexion	mcp5_flexion	mcp5_abduction	pm5_flexion	md5_flexion	bicpt_tx	bicpt_ty	bicpt_tz	bicpt2_tx	bicpt2_ty	bicpt2_tz	ptpt_tx	ptpt_ty	ptpt_tz	FCUpt_tx	FCUpt_ty	FCUpt_tz	EDCpt_tx	EDCpt_ty	EDCpt_tz	APLpt_tx	APLpt_ty	APLpt_tz	FPLpt_tx	FPLpt_ty	FPLpt_tz	FPLpt2_tx	FPLpt2_ty	FPLpt2_tz	PEC1pt2_tx	PEC1pt2_ty	PEC1pt2_tz	PEC1pt3_tx	PEC1pt3_ty	PEC1pt3_tz	PEC2pt2_tx	PEC2pt2_ty	PEC2pt2_tz	PEC2pt3_tx	PEC2pt3_ty	PEC2pt3_tz	PEC3pt2_tx	PEC3pt2_ty	PEC3pt2_tz	PEC3pt3_tx	PEC3pt3_ty	PEC3pt3_tz	DELT2pt2a_tx	DELT2pt2a_ty	DELT2pt2a_tz	DELT2pt2_tx	DELT2pt2_ty	DELT2pt2_tz	LAT1pt2_tx	LAT1pt2_ty	LAT1pt2_tz	LAT1pt3_tx	LAT1pt3_ty	LAT1pt3_tz	LAT2pt2_tx	LAT2pt2_ty	LAT2pt2_tz	LAT2pt3_tx	LAT2pt3_ty	LAT2pt3_tz	LAT3pt2_tx	LAT3pt2_ty	LAT3pt2_tz	LAT3pt3_tx	LAT3pt3_ty	LAT3pt3_tz
      0.76666667	     -0.32118177	      0.13603744	     -0.13603744	      0.32118177	     -0.06503278	      0.52557202	      0.23624101	     -0.23624101	     -0.52557202	      0.06503278	     98.79047910	     76.04264003	     -1.72421913	    -23.87316800	     28.94700118	     40.17373803	      0.17598156	     -1.06262936	      0.21348299	     -0.53131468	     11.04835930	      0.85545570	    -35.37463341	    -51.07442869	     77.07967463	     13.89260836	     85.31644764	     94.44080177	     86.72098415	      5.94409842	     82.86697622	     54.10607319	     90.21113526	    -12.07852399	     85.58000658	     57.05981319	    102.67848875	    -14.33852739	     70.82611571	      5.81300686	      0.00085748	     -0.03091777	     -0.00483441	      0.01657470	     -0.01806359	     -0.00745146	      0.00458161	     -0.06681941	     -0.00328621	      0.00779773	     -0.18349145	     -0.00038764	     -0.00482084	      0.00138732	      0.00014516	      0.00014158	      0.00005663	      0.00028317	      0.00018123	      0.00054368	      0.00030582	      0.00003124	     -0.00020839	     -0.00025007	      0.00249251	      0.00874491	      0.00608342	     -0.00815347	      0.01968661	     -0.01867271	      0.00249251	      0.00874491	      0.00608342	      0.00054920	      0.01825025	     -0.00958983	      0.00394323	      0.00486293	      0.01595612	      0.00000000	      0.00773310	      0.00000000	     -0.00713957	     -0.03299408	     -0.00637604	      0.01591095	     -0.00055377	     -0.00475769	     -0.00088716	      0.01487057	     -0.00608342	      0.00245026	      0.02146094	     -0.01774330	     -0.00595668	      0.01288501	     -0.00544973	     -0.01242031	      0.02720639	     -0.03045933	     -0.02331976	      0.01440587	     -0.00730855	     -0.01546202	      0.03143098	     -0.03806360
      0.80000000	     -0.31944364	      0.13530125	     -0.13530125	      0.31944364	     -0.06468084	      0.52272779	      0.23496255	     -0.23496255	     -0.52272779	      0.06468084	     99.13244410	     75.63112157	     -1.73018755	    -25.99646791	     29.24012289	     42.45908661	      0.17578194	     -1.02535245	      0.21327019	     -0.51267623	     11.23177404	      0.14541689	    -35.71193665	    -51.38264443	     76.81708077	     13.89517502	     85.50721804	     95.62858506	     86.68044734	      6.02215679	     82.89643800	     54.53652435	     89.00575369	    -11.96670358	     86.72230716	     58.57819148	    102.64085979	    -14.33583201	     71.17020061	      5.82983337	      0.00086717	     -0.03095137	     -0.00483982	      0.01657209	     -0.01814322	     -0.00720328	      0.00441275	     -0.06692860	     -0.00347031	      0.00802875	     -0.18344305	     -0.00040160	     -0.00509508	      0.00148121	      0.00012713	      0.00016867	      0.00006747	      0.00033734	      0.00021590	      0.00064770	      0.00036433	      0.00003096	     -0.00021071	     -0.00025286	      0.00247902	      0.00869759	      0.00605049	     -0.00810934	      0.01958007	     -0.01857166	      0.00247902	      0.00869759	      0.00605049	      0.00054623	      0.01815148	     -0.00953793	      0.00392760	      0.00483662	      0.01591771	      0.00000000	      0.00764906	      0.00000000	     -0.00710093	     -0.03281553	     -0.00630626	      0.01699606	     -0.00062286	     -0.00565075	     -0.00088236	      0.01479010	     -0.00605049	      0.00243700	      0.02134480	     -0.01764728	     -0.00592444	      0.01281528	     -0.00542023	     -0.01235309	      0.02705916	     -0.03029449	     -0.02319356	      0.01432791	     -0.00726900	     -0.01537834	      0.03126089	     -0.03785761
      0.83333333	     -0.31948378	      0.13531825	     -0.13531825	      0.31948378	     -0.06468897	      0.52279347	      0.23499207	     -0.23499207	     -0.52279347	      0.06468897	     99.12801246	     75.64062420	     -1.73011020	    -25.99954085	     29.23910035	     42.45802817	      0.17578972	     -1.02536346	      0.21327786	     -0.51268173	     11.23176309	      0.14579835	    -35.71156207	    -51.38247784	     76.81743895	     13.89514776	     85.50722335	     95.62832054	     86.68055019	      6.02191406	     82.89647657	     54.53647856	     89.00501466	    -11.96672719	     86.72202261	     58.57880829	    102.64183989	    -14.33573136	     71.17057170	      5.82985928	      0.00086714	     -0.03095125	     -0.00483980	      0.01657209	     -0.01814295	     -0.00720340	      0.00441283	     -0.06692855	     -0.00347022	      0.00802864	     -0.18344307	     -0.00040159	     -0.00509495	      0.00148117	      0.00012714	      0.00016862	      0.00006745	      0.00033724	      0.00021583	      0.00064749	      0.00036422	      0.00003096	     -0.00021071	     -0.00025285	      0.00247933	      0.00869868	      0.00605126	     -0.00811036	      0.01958253	     -0.01857399	      0.00247933	      0.00869868	      0.00605126	      0.00054629	      0.01815377	     -0.00953913	      0.00392796	      0.00483722	      0.01591860	      0.00000000	      0.00765099	      0.00000000	     -0.00710182	     -0.03281965	     -0.00630786	      0.01699759	     -0.00062296	     -0.00565209	     -0.00088247	      0.01479196	     -0.00605126	      0.00243731	      0.02134748	     -0.01764949	     -0.00592519	      0.01281689	     -0.00542092	     -0.01235465	      0.02706256	     -0.03029830	     -0.02319648	      0.01432971	     -0.00726991	     -0.01538027	      0.03126482	     -0.03786237
      0.86666667	     -0.32404574	      0.13725048	     -0.13725048	      0.32404574	     -0.06561267	      0.53025852	      0.23834756	     -0.23834756	     -0.53025852	      0.06561267	     98.21435512	     76.72070926	     -1.71416387	    -20.59441912	     28.73275923	     36.95083716	      0.19168770	     -1.06132683	      0.23007182	     -0.53066341	     11.01625217	      0.71729456	    -35.59852896	    -51.29332579	     77.07421186	     13.89034293	     85.31306701	     95.36666459	     86.86229142	      5.70922606	     82.80914746	     53.68350176	     89.89296038	    -12.01694240	     84.00125493	     65.36645267	    103.69823927	    -14.33302187	     70.92150610	      5.81476305	      0.00085039	     -0.03089321	     -0.00483045	      0.01655808	     -0.01800539	     -0.00778901	      0.00481975	     -0.06666542	     -0.00302659	      0.00747469	     -0.18355717	     -0.00036127	     -0.00443409	      0.00125764	      0.00016579	      0.00014257	      0.00005703	      0.00028514	      0.00018249	      0.00054746	      0.00030795	      0.00003129	     -0.00020799	     -0.00024958	      0.00251474	      0.00882289	      0.00613766	     -0.00822617	      0.01986216	     -0.01883921	      0.00251474	      0.00882289	      0.00613766	      0.00055409	      0.01841299	     -0.00967534	      0.00396885	      0.00490630	      0.01601852	      0.00000000	      0.00787262	      0.00000000	     -0.00720323	     -0.03328829	     -0.00649185	      0.01411690	     -0.00045026	     -0.00350731	     -0.00089508	      0.01500317	     -0.00613766	      0.00247211	      0.02165231	     -0.01790151	     -0.00600979	      0.01299991	     -0.00549832	     -0.01253106	      0.02744899	     -0.03073093	     -0.02352770	      0.01453432	     -0.00737372	     -0.01559989	      0.03171125	     -0.03840301
      0.90000000	     -0.32585551	      0.13801701	     -0.13801701	      0.32585551	     -0.06597911	      0.53321998	      0.23967871	     -0.23967871	     -0.53321998	      0.06597911	     97.87528317	     77.14918810	     -1.70824595	    -18.53191460	     28.64450336	     35.00119030	      0.20762475	     -1.05946012	      0.24649179	     -0.52973006	     11.38108249	      0.66832150	    -35.55223731	    -51.51008076	     77.26443198	     13.90719078	     85.34403288	     94.66441243	     86.87631805	      5.82061336	     82.79278099	     53.97920371	     89.47079365	    -12.02575953	     85.03393394	     63.61061546	    103.40384719	    -14.33015796	     71.89084490	      5.80000034	      0.00084747	     -0.03088310	     -0.00482882	      0.01653650	     -0.01798142	     -0.00798615	      0.00496381	     -0.06657228	     -0.00286953	      0.00728082	     -0.18359550	     -0.00034153	     -0.00420013	      0.00118075	      0.00017554	      0.00014397	      0.00005759	      0.00028795	      0.00018429	      0.00055286	      0.00031099	      0.00003073	     -0.00021257	     -0.00025508	      0.00252878	      0.00887216	      0.00617194	     -0.00827211	      0.01997308	     -0.01894443	      0.00252878	      0.00887216	      0.00617194	      0.00055719	      0.01851582	     -0.00972938	      0.00398494	      0.00493370	      0.01605739	      0.00000000	      0.00796144	      0.00000000	     -0.00724346	     -0.03347420	     -0.00656557	      0.01291470	     -0.00038728	     -0.00280574	     -0.00090007	      0.01508697	     -0.00617194	      0.00248592	      0.02177323	     -0.01800149	     -0.00604336	      0.01307251	     -0.00552903	     -0.01260104	      0.02760229	     -0.03090256	     -0.02365910	      0.01461550	     -0.00741490	     -0.01568701	      0.03188836	     -0.03861749
      0.93333333	     -0.32539184	      0.13782063	     -0.13782063	      0.32539184	     -0.06588523	      0.53246125	      0.23933767	     -0.23933767	     -0.53246125	      0.06588523	     97.89706274	     77.03941162	     -1.70862607	    -19.04667622	     28.81712790	     35.43724574	      0.20778406	     -1.06659862	      0.24665426	     -0.53329931	     11.45569001	      0.84967831	    -35.28417300	    -51.04208930	     77.43888540	     13.92283655	     85.38370173	     94.26775995	     86.75566135	      5.92077762	     82.84180526	     54.05689101	     89.81579798	    -12.05135643	     85.44550058	     60.34169915	    102.53238486	    -14.32373523	     72.31397310	      5.78614647	      0.00085318	     -0.03090288	     -0.00483201	      0.01654207	     -0.01802831	     -0.00794252	      0.00493159	     -0.06659311	     -0.00290466	      0.00732408	     -0.18358702	     -0.00034619	     -0.00425246	      0.00119785	      0.00017354	      0.00013857	      0.00005543	      0.00027714	      0.00017737	      0.00053210	      0.00029931	      0.00003061	     -0.00021349	     -0.00025618	      0.00252518	      0.00885954	      0.00616316	     -0.00826034	      0.01994466	     -0.01891747	      0.00252518	      0.00885954	      0.00616316	      0.00055640	      0.01848947	     -0.00971553	      0.00398083	      0.00492668	      0.01604747	      0.00000000	      0.00793863	      0.00000000	     -0.00723315	     -0.03342657	     -0.00654664	      0.01322006	     -0.00040284	     -0.00297447	     -0.00089879	      0.01506550	     -0.00616316	      0.00248238	      0.02174225	     -0.01797588	     -0.00603476	      0.01305391	     -0.00552116	     -0.01258311	      0.02756301	     -0.03085859	     -0.02362544	      0.01459470	     -0.00740435	     -0.01566469	      0.03184298	     -0.03856254
